%TF.GenerationSoftware,KiCad,Pcbnew,9.0.6*%
%TF.CreationDate,2026-02-18T17:43:32+01:00*%
%TF.ProjectId,kicad-pcb-capteur-deformation,6b696361-642d-4706-9362-2d6361707465,1.0.0*%
%TF.SameCoordinates,Original*%
%TF.FileFunction,Copper,L1,Top*%
%TF.FilePolarity,Positive*%
%FSLAX46Y46*%
G04 Gerber Fmt 4.6, Leading zero omitted, Abs format (unit mm)*
G04 Created by KiCad (PCBNEW 9.0.6) date 2026-02-18 17:43:32*
%MOMM*%
%LPD*%
G01*
G04 APERTURE LIST*
%TA.AperFunction,ComponentPad*%
%ADD10R,1.700000X1.700000*%
%TD*%
%TA.AperFunction,ComponentPad*%
%ADD11O,1.700000X1.700000*%
%TD*%
%TA.AperFunction,ComponentPad*%
%ADD12R,2.000000X2.000000*%
%TD*%
%TA.AperFunction,ComponentPad*%
%ADD13O,2.000000X2.540000*%
%TD*%
%TA.AperFunction,ComponentPad*%
%ADD14C,2.000000*%
%TD*%
%TA.AperFunction,ComponentPad*%
%ADD15O,2.540000X2.000000*%
%TD*%
%TA.AperFunction,ViaPad*%
%ADD16C,2.400000*%
%TD*%
%TA.AperFunction,Conductor*%
%ADD17C,0.500000*%
%TD*%
G04 APERTURE END LIST*
D10*
%TO.P,J1,1,Pin_1*%
%TO.N,unconnected-(J1-Pin_1-Pad1)*%
X127940000Y-97460000D03*
D11*
%TO.P,J1,2,Pin_2*%
%TO.N,/IOREF*%
X130480000Y-97460000D03*
%TO.P,J1,3,Pin_3*%
%TO.N,/~{RESET}*%
X133020000Y-97460000D03*
%TO.P,J1,4,Pin_4*%
%TO.N,+3V3*%
X135560000Y-97460000D03*
%TO.P,J1,5,Pin_5*%
%TO.N,VCC*%
X138100000Y-97460000D03*
%TO.P,J1,6,Pin_6*%
%TO.N,GND*%
X140640000Y-97460000D03*
%TO.P,J1,7,Pin_7*%
X143180000Y-97460000D03*
%TO.P,J1,8,Pin_8*%
%TO.N,VCC_Arduino*%
X145720000Y-97460000D03*
%TD*%
D10*
%TO.P,J3,1,Pin_1*%
%TO.N,/A0*%
X150800000Y-97460000D03*
D11*
%TO.P,J3,2,Pin_2*%
%TO.N,FLX*%
X153340000Y-97460000D03*
%TO.P,J3,3,Pin_3*%
%TO.N,Signal*%
X155880000Y-97460000D03*
%TO.P,J3,4,Pin_4*%
%TO.N,/A3*%
X158420000Y-97460000D03*
%TO.P,J3,5,Pin_5*%
%TO.N,SDA*%
X160960000Y-97460000D03*
%TO.P,J3,6,Pin_6*%
%TO.N,SCL*%
X163500000Y-97460000D03*
%TD*%
D12*
%TO.P,J2,1,Pin_1*%
%TO.N,SCL*%
X118796000Y-49200000D03*
D13*
%TO.P,J2,2,Pin_2*%
%TO.N,SDA*%
X121336000Y-49200000D03*
%TO.P,J2,3,Pin_3*%
%TO.N,/AREF*%
X123876000Y-49200000D03*
%TO.P,J2,4,Pin_4*%
%TO.N,GND*%
X126416000Y-49200000D03*
%TO.P,J2,5,Pin_5*%
%TO.N,SCK*%
X128956000Y-49200000D03*
%TO.P,J2,6,Pin_6*%
%TO.N,/12*%
X131496000Y-49200000D03*
%TO.P,J2,7,Pin_7*%
%TO.N,MOSI*%
X134036000Y-49200000D03*
%TO.P,J2,8,Pin_8*%
%TO.N,SS*%
X136576000Y-49200000D03*
%TO.P,J2,9,Pin_9*%
%TO.N,PWM*%
X139116000Y-49200000D03*
%TO.P,J2,10,Pin_10*%
%TO.N,TxD*%
X141656000Y-49200000D03*
%TD*%
D10*
%TO.P,J4,1,Pin_1*%
%TO.N,RxD*%
X145720000Y-49200000D03*
D11*
%TO.P,J4,2,Pin_2*%
%TO.N,/\u002A6*%
X148260000Y-49200000D03*
%TO.P,J4,3,Pin_3*%
%TO.N,SW*%
X150800000Y-49200000D03*
%TO.P,J4,4,Pin_4*%
%TO.N,DT*%
X153340000Y-49200000D03*
%TO.P,J4,5,Pin_5*%
%TO.N,/\u002A3*%
X155880000Y-49200000D03*
%TO.P,J4,6,Pin_6*%
%TO.N,CLK*%
X158420000Y-49200000D03*
%TO.P,J4,7,Pin_7*%
%TO.N,/TX{slash}1*%
X160960000Y-49200000D03*
%TO.P,J4,8,Pin_8*%
%TO.N,/RX{slash}0*%
X163500000Y-49200000D03*
%TD*%
D14*
%TO.P,C1,1*%
%TO.N,PB0*%
X145150000Y-76755000D03*
%TO.P,C1,2*%
%TO.N,Net-(U3-OUT)*%
X145150000Y-79295000D03*
%TD*%
D12*
%TO.P,U3,1,NC_2*%
%TO.N,unconnected-(U3-NC_2-Pad1)*%
X131775000Y-74200000D03*
D14*
%TO.P,U3,2,-IN*%
%TO.N,PB0*%
X131775000Y-76740000D03*
%TO.P,U3,3,+IN*%
%TO.N,Net-(U3-+IN)*%
X131775000Y-79280000D03*
%TO.P,U3,4,V-*%
%TO.N,GND*%
X131775000Y-81820000D03*
%TO.P,U3,5,EXTCLOCKINPUT*%
%TO.N,unconnected-(U3-EXTCLOCKINPUT-Pad5)*%
X139395000Y-81820000D03*
%TO.P,U3,6,OUT*%
%TO.N,Net-(U3-OUT)*%
X139395000Y-79280000D03*
%TO.P,U3,7,V+*%
%TO.N,VCC*%
X139395000Y-76740000D03*
%TO.P,U3,8,NC*%
%TO.N,unconnected-(U3-NC-Pad8)*%
X139395000Y-74200000D03*
%TD*%
D12*
%TO.P,U5,1,~{CS}*%
%TO.N,SS*%
X128950000Y-59980000D03*
D14*
%TO.P,U5,2,SCK*%
%TO.N,SCK*%
X126410000Y-59980000D03*
%TO.P,U5,3,SI*%
%TO.N,MOSI*%
X123870000Y-59980000D03*
%TO.P,U5,4,VSS*%
%TO.N,GND*%
X121330000Y-59980000D03*
%TO.P,U5,5,PA0*%
X121330000Y-67850000D03*
%TO.P,U5,6,PW0*%
X123870000Y-67850000D03*
%TO.P,U5,7,PB0*%
%TO.N,PB0*%
X126410000Y-67850000D03*
%TO.P,U5,8,VDD*%
%TO.N,VCC*%
X128950000Y-67850000D03*
%TD*%
%TO.P,R2,1*%
%TO.N,Net-(U3-OUT)*%
X149825000Y-82315000D03*
%TO.P,R2,2*%
%TO.N,Signal*%
X157445000Y-82315000D03*
%TD*%
D15*
%TO.P,U4,1,GND*%
%TO.N,GND*%
X107840000Y-57930000D03*
%TO.P,U4,2,VCC*%
%TO.N,VCC*%
X107840000Y-60470000D03*
%TO.P,U4,3,SCL*%
%TO.N,SCL*%
X107840000Y-63010000D03*
%TO.P,U4,4,SDA*%
%TO.N,SDA*%
X107840000Y-65550000D03*
%TD*%
D13*
%TO.P,U2,1,GND*%
%TO.N,GND*%
X151950000Y-56640000D03*
%TO.P,U2,2,VCC*%
%TO.N,VCC*%
X154490000Y-56640000D03*
%TO.P,U2,3,SW*%
%TO.N,SW*%
X157030000Y-56640000D03*
%TO.P,U2,4,DT*%
%TO.N,DT*%
X159570000Y-56640000D03*
%TO.P,U2,5,CLK*%
%TO.N,CLK*%
X162110000Y-56640000D03*
%TD*%
D14*
%TO.P,C2,1*%
%TO.N,Signal*%
X157415000Y-78785000D03*
%TO.P,C2,2*%
%TO.N,GND*%
X157415000Y-76245000D03*
%TD*%
%TO.P,R1,1*%
%TO.N,Net-(U3-OUT)*%
X149825000Y-79385000D03*
%TO.P,R1,2*%
%TO.N,PB0*%
X149825000Y-71765000D03*
%TD*%
D13*
%TO.P,U6,1,VCC*%
%TO.N,VCC*%
X122015000Y-90100000D03*
%TO.P,U6,2,Vout*%
%TO.N,Net-(U6-Vout)*%
X119475000Y-90100000D03*
%TD*%
D15*
%TO.P,M1,1,PWM*%
%TO.N,PWM*%
X136035000Y-56465000D03*
%TO.P,M1,2,+*%
%TO.N,VCC*%
X136035000Y-59005000D03*
%TO.P,M1,3,-*%
%TO.N,GND*%
X136035000Y-61545000D03*
%TD*%
D14*
%TO.P,R3,1*%
%TO.N,GND*%
X125365000Y-85120000D03*
%TO.P,R3,2*%
%TO.N,Net-(U3-+IN)*%
X125365000Y-77500000D03*
%TD*%
D13*
%TO.P,U7,1,VCC*%
%TO.N,VCC*%
X150785000Y-93225000D03*
%TO.P,U7,2,OUT*%
%TO.N,FLX*%
X153325000Y-93225000D03*
%TD*%
D15*
%TO.P,U1,1,VCC*%
%TO.N,VCC*%
X143710000Y-63160000D03*
%TO.P,U1,2,GND*%
%TO.N,GND*%
X143710000Y-60620000D03*
%TO.P,U1,3,TxD*%
%TO.N,TxD*%
X143710000Y-58080000D03*
%TO.P,U1,4,RxD*%
%TO.N,RxD*%
X143710000Y-55540000D03*
%TD*%
D14*
%TO.P,R4,1*%
%TO.N,Net-(U3-+IN)*%
X117455000Y-77570000D03*
%TO.P,R4,2*%
%TO.N,Net-(U6-Vout)*%
X117455000Y-85190000D03*
%TD*%
%TO.P,C4,1*%
%TO.N,Net-(U3-+IN)*%
X121075000Y-77525000D03*
%TO.P,C4,2*%
%TO.N,GND*%
X121075000Y-80065000D03*
%TD*%
%TO.P,R5,1*%
%TO.N,FLX*%
X153500000Y-88990000D03*
%TO.P,R5,2*%
%TO.N,GND*%
X145880000Y-88990000D03*
%TD*%
D16*
%TO.N,Signal*%
X157375000Y-84700000D03*
X157375000Y-93250000D03*
%TO.N,VCC*%
X147270000Y-63110000D03*
X152600000Y-61150000D03*
%TO.N,MOSI*%
X123860000Y-57580000D03*
X128540000Y-53460000D03*
%TD*%
D17*
%TO.N,Signal*%
X157375000Y-84700000D02*
X157375000Y-93250000D01*
%TO.N,VCC*%
X147270000Y-63110000D02*
X149230000Y-61150000D01*
X149230000Y-61150000D02*
X152600000Y-61150000D01*
%TO.N,MOSI*%
X123860000Y-57580000D02*
X127980000Y-53460000D01*
X127980000Y-53460000D02*
X128540000Y-53460000D01*
%TD*%
M02*
